<svg width="52" height="69" viewBox="0 0 52 69" fill="none" xmlns="http://www.w3.org/2000/svg">
<g clip-path="url(#clip0_708_734)">
<path d="M1.88281 12.8923C1.88281 5.77208 7.65491 0 14.7752 0H36.8968C44.0171 0 49.7892 5.77208 49.7892 12.8923C49.7892 17.4009 47.4749 21.369 43.9693 23.6733C47.4749 25.9777 49.7892 29.9457 49.7892 34.4543C49.7892 41.5746 44.0171 47.3467 36.8968 47.3467H36.6169C33.2789 47.3467 30.2371 46.0781 27.9475 43.9967V55.8757C27.9475 63.0908 22.0245 68.908 14.8447 68.908C7.74216 68.908 1.88281 63.1535 1.88281 56.0156C1.88281 51.5073 4.19695 47.5394 7.7022 45.235C4.19695 42.9306 1.88281 38.9627 1.88281 34.4543C1.88281 29.9457 4.19715 25.9777 7.70265 23.6733C4.19715 21.369 1.88281 17.4009 1.88281 12.8923ZM23.7245 25.7849H14.7752C9.9872 25.7849 6.10582 29.6664 6.10582 34.4543C6.10582 39.2237 9.95727 43.0936 14.7198 43.1235C14.7382 43.1234 14.7566 43.1234 14.7752 43.1234H23.7245V25.7849ZM27.9475 34.4543C27.9475 39.2422 31.8289 43.1236 36.6169 43.1236H36.8968C41.6849 43.1236 45.5662 39.2422 45.5662 34.4543C45.5662 29.6664 41.6849 25.7849 36.8968 25.7849H36.6169C31.8289 25.7849 27.9475 29.6664 27.9475 34.4543ZM14.7752 47.3467C14.7566 47.3467 14.7382 47.3465 14.7198 47.3465C9.95727 47.3763 6.10582 51.2462 6.10582 56.0156C6.10582 60.786 10.0391 64.685 14.8447 64.685C19.7277 64.685 23.7245 60.7233 23.7245 55.8757V47.3467H14.7752ZM14.7752 4.22301C9.9872 4.22301 6.10582 8.10441 6.10582 12.8923C6.10582 17.6803 9.9872 21.5616 14.7752 21.5616H23.7245V4.22301H14.7752ZM27.9475 21.5616H36.8968C41.6849 21.5616 45.5662 17.6803 45.5662 12.8923C45.5662 8.10441 41.6849 4.22301 36.8968 4.22301H27.9475V21.5616Z" fill="#606060"/>
</g>
<defs>
<clipPath id="clip0_708_734">
<rect width="51.681" height="68.908" fill="white"/>
</clipPath>
</defs>
</svg>
