<svg width="65" height="75" viewBox="0 0 65 75" fill="none" xmlns="http://www.w3.org/2000/svg">
<g clip-path="url(#clip0_708_722)">
<path d="M0 4.64307V69.6431H65V4.64307H0ZM35.3728 55.3373C35.3728 61.6632 31.6585 64.5504 26.2467 64.5504C21.3571 64.5504 18.5279 62.0259 17.077 58.9645L22.0536 55.9611C23.0112 57.6587 23.8817 59.0951 25.9855 59.0951C27.9877 59.0951 29.2645 58.3116 29.2645 55.2502V34.4879H35.3728V55.3373ZM49.8237 64.5504C44.1507 64.5504 40.4799 61.8518 38.6953 58.3116L43.6719 55.4388C44.9777 57.5716 46.6897 59.1531 49.6931 59.1531C52.2176 59.1531 53.8426 57.8908 53.8426 56.1353C53.8426 54.046 52.1886 53.306 49.3884 52.0728L47.865 51.4198C43.4542 49.5482 40.5379 47.1832 40.5379 42.2067C40.5379 37.6219 44.0346 34.1397 49.4754 34.1397C53.3638 34.1397 56.1496 35.489 58.1518 39.0292L53.3929 42.0761C52.3482 40.2044 51.2165 39.4645 49.4609 39.4645C47.6763 39.4645 46.5446 40.5962 46.5446 42.0761C46.5446 43.9042 47.6763 44.6442 50.3025 45.7904L51.8259 46.4433C57.0201 48.6632 59.9364 50.9411 59.9364 56.0482C59.9364 61.5326 55.6127 64.5504 49.8237 64.5504Z" fill="#5F5F5F"/>
</g>
<defs>
<clipPath id="clip0_708_722">
<rect width="65" height="74.2857" fill="white"/>
</clipPath>
</defs>
</svg>
