<svg width="100" height="100" viewBox="0 0 100 100" fill="none" xmlns="http://www.w3.org/2000/svg">
<g clip-path="url(#clip0_708_738)">
<path d="M81.2982 34.4476C80.2484 34.0977 79.1987 33.7672 78.1489 33.4562C78.3239 32.7369 78.4794 32.0176 78.6349 31.2983C81.026 19.7121 79.4514 10.4003 74.1442 7.3288C69.0315 4.39335 60.6918 7.44544 52.2548 14.7938C51.4189 15.513 50.6024 16.2712 49.8248 17.0294C49.2999 16.5239 48.7556 16.0185 48.2113 15.5325C39.366 7.67872 30.5014 4.37391 25.1943 7.46488C20.101 10.4198 18.5847 19.1872 20.7231 30.1514C20.9369 31.24 21.1702 32.3092 21.4423 33.3979C20.1982 33.7478 18.9735 34.1366 17.8265 34.5448C7.44553 38.1412 0 43.8177 0 49.6886C0 55.7539 7.93153 61.8386 18.7207 65.5322C19.5955 65.8238 20.4703 66.1154 21.3646 66.3681C21.073 67.5345 20.8203 68.6815 20.587 69.8674C18.5458 80.6566 20.1399 89.2102 25.2332 92.1456C30.482 95.1783 39.3077 92.0679 47.9002 84.5446C48.5806 83.9419 49.261 83.3199 49.9414 82.6589C50.7968 83.4948 51.691 84.2919 52.5853 85.0695C60.9056 92.2234 69.1287 95.1199 74.2026 92.1845C79.4514 89.1519 81.1621 79.9567 78.9459 68.7593C78.771 67.9039 78.5766 67.0291 78.3627 66.1349C78.9848 65.9599 79.5875 65.7655 80.1901 65.5711C91.407 61.8581 99.5329 55.8511 99.5329 49.6886C99.5329 43.7983 91.8736 38.0829 81.2982 34.4476ZM54.9958 17.943C62.2275 11.6445 68.9732 9.1756 72.0447 10.9446C75.3301 12.8303 76.5937 20.4508 74.5331 30.4624C74.397 31.1234 74.2609 31.7649 74.0859 32.4064C69.7702 31.4344 65.3962 30.7346 61.0028 30.3458C58.4756 26.7299 55.7151 23.2696 52.7213 20.0231C53.4795 19.3039 54.2182 18.6235 54.9958 17.943ZM32.5037 59.778C33.4952 61.4693 34.506 63.1605 35.5752 64.8129C32.5426 64.4825 29.5294 63.9965 26.5551 63.3549C27.4104 60.5556 28.4796 57.659 29.7238 54.7041C30.618 56.4149 31.5317 58.1061 32.5037 59.778ZM26.6134 36.3916C29.4128 35.7696 32.3871 35.2641 35.478 34.8753C34.4477 36.4888 33.4368 38.1412 32.4843 39.8131C31.5317 41.4655 30.5986 43.1568 29.7238 44.8675C28.4991 41.9709 27.4688 39.1327 26.6134 36.3916ZM31.94 49.7858C33.223 47.1031 34.6227 44.4787 36.1001 41.8932C37.5776 39.3076 39.1716 36.7999 40.8435 34.331C43.7595 34.1171 46.7338 34.0005 49.7665 34.0005C52.7991 34.0005 55.7929 34.1171 58.6894 34.331C60.3418 36.7804 61.9165 39.2882 63.4134 41.8543C64.9102 44.4204 66.3099 47.0448 67.6318 49.708C66.3294 52.3908 64.9297 55.0346 63.4328 57.6396C61.9554 60.2251 60.3807 62.7329 58.7283 65.2212C55.8317 65.435 52.8185 65.5322 49.7665 65.5322C46.7144 65.5322 43.7595 65.435 40.9018 65.2601C39.2105 62.7912 37.6164 60.264 36.1196 57.6785C34.6227 55.0929 33.2424 52.4685 31.94 49.7858ZM67.0486 59.7391C68.0401 58.0284 68.9732 56.2982 69.8869 54.5486C71.1311 57.3674 72.2197 60.2251 73.1722 63.1605C70.159 63.8409 67.107 64.3658 64.0354 64.7157C65.0852 63.0828 66.0766 61.4109 67.0486 59.7391ZM69.848 44.8675C68.9343 43.1568 68.0012 41.446 67.0292 39.7742C66.0766 38.1218 65.0852 36.4888 64.0549 34.8753C67.1847 35.2641 70.1785 35.789 72.9778 36.4305C72.0836 39.3076 71.0338 42.107 69.848 44.8675ZM49.8053 22.9975C51.8465 25.2136 53.7711 27.5464 55.5596 29.957C51.7105 29.782 47.8419 29.782 43.9928 29.957C45.8979 27.4492 47.8613 25.1164 49.8053 22.9975ZM27.2549 11.0807C30.5208 9.1756 37.772 11.8972 45.4119 18.6623C45.8979 19.09 46.3839 19.5566 46.8893 20.0231C43.8761 23.2696 41.0962 26.7299 38.5496 30.3458C34.1561 30.7346 29.8016 31.415 25.4859 32.3675C25.2332 31.3761 25.0193 30.3652 24.8055 29.3543C22.9781 19.9454 24.1834 12.8498 27.2549 11.0807ZM22.4921 62.3246C21.6756 62.0913 20.8786 61.8386 20.0815 61.5665C15.9408 60.264 11.2363 58.2033 7.83433 55.5012C5.87089 54.1404 4.54897 52.0409 4.17961 49.6886C4.17961 46.1311 10.3227 41.5821 19.1873 38.4912C20.2954 38.1024 21.4229 37.7524 22.5504 37.422C23.8723 41.6404 25.4664 45.7812 27.3132 49.7858C25.447 53.8488 23.8335 58.0478 22.4921 62.3246ZM45.1592 81.3758C41.9516 84.3113 38.2385 86.6441 34.195 88.2382C32.0372 89.2685 29.5488 89.3657 27.3327 88.4909C24.2417 86.7024 22.9587 79.8401 24.7083 70.6061C24.9221 69.5174 25.1554 68.4288 25.4276 67.3596C29.7821 68.2927 34.1756 68.9342 38.6273 69.2647C41.1934 72.9 44.0122 76.3798 47.0254 79.6457C46.4033 80.2483 45.7813 80.8315 45.1592 81.3758ZM49.922 76.6519C47.9391 74.5135 45.9562 72.1418 44.0317 69.5952C45.8979 69.673 47.8225 69.7118 49.7665 69.7118C51.7688 69.7118 53.7322 69.673 55.6762 69.5758C53.8877 72.0446 51.9632 74.3969 49.922 76.6519ZM75.3301 82.4839C75.1551 84.8556 73.9887 87.0718 72.1225 88.5687C69.0315 90.3571 62.4414 88.0243 55.3263 81.9202C54.5098 81.2203 53.6933 80.4622 52.8574 79.6846C55.8317 76.3992 58.5728 72.9194 61.0611 69.2647C65.5129 68.8954 69.9452 68.215 74.3192 67.2235C74.5136 68.0205 74.6886 68.8176 74.8441 69.5952C75.7967 73.7942 75.9522 78.1682 75.3301 82.4839ZM78.8682 61.5859C78.3239 61.7609 77.7795 61.9358 77.2158 62.0913C75.855 57.8534 74.1831 53.7127 72.2586 49.6886C74.1248 45.7228 75.6995 41.6404 77.0214 37.4608C78.0323 37.7524 79.0043 38.0635 79.9374 38.3745C88.9964 41.4849 95.3533 46.1116 95.3533 49.6497C95.3533 53.46 88.5687 58.3783 78.8682 61.5859ZM49.7665 58.6699C54.6848 58.6699 58.67 54.6847 58.67 49.7664C58.67 44.848 54.6848 40.8628 49.7665 40.8628C44.8481 40.8628 40.8629 44.848 40.8629 49.7664C40.8629 54.6847 44.8481 58.6699 49.7665 58.6699Z" fill="#606060"/>
</g>
<defs>
<clipPath id="clip0_708_738">
<rect width="99.5329" height="99.5329" fill="white"/>
</clipPath>
</defs>
</svg>
