<svg width="94" height="76" viewBox="0 0 94 76" fill="none" xmlns="http://www.w3.org/2000/svg">
<g clip-path="url(#clip0_708_730)">
<path d="M44.2899 55.6015C44.2459 55.6895 44.2019 55.76 44.2899 55.6015V55.6015ZM80.8459 42.8356C77.8947 42.8346 74.9828 43.5124 72.3353 44.8165C71.4696 43.0703 70.5745 41.5443 70.4278 40.3998C70.2517 39.0645 70.0609 38.2721 70.2663 36.6874C70.4718 35.1026 71.3962 32.8576 71.3815 32.6962C71.3669 32.5348 71.1761 31.7277 69.2832 31.7131C67.3904 31.6984 65.7616 32.0799 65.5723 32.5788C65.238 33.4905 64.9779 34.4278 64.7946 35.3814C64.4571 37.0982 61.0103 43.2317 59.0587 46.4306C58.4131 45.1833 57.8702 44.0828 57.7528 43.2024C57.5767 41.8671 57.386 41.0747 57.5914 39.49C57.7968 37.9053 58.7213 35.6602 58.7066 35.4988C58.6919 35.3374 58.5012 34.5304 56.6097 34.5157C54.7183 34.501 53.0881 34.8825 52.8974 35.3814C52.7066 35.8803 52.5012 37.0542 52.1197 38.1841C51.7382 39.3139 47.1468 49.5267 45.9451 52.1826C45.3288 53.5325 44.8005 54.6184 44.419 55.352C44.3603 55.4694 44.3163 55.5428 44.287 55.6015C44.331 55.5281 44.3603 55.4547 44.3603 55.4841C44.0375 56.1151 43.8468 56.4672 43.8468 56.4672V56.4819C43.5973 56.9514 43.3185 57.377 43.1865 57.377C43.0984 57.377 42.9077 56.1444 43.2305 54.457C43.9201 50.906 45.5489 45.3887 45.5342 45.198C45.5195 45.0953 45.8423 44.1415 44.463 43.6279C43.1278 43.1437 42.6435 43.9507 42.5261 43.9507C42.4088 43.9507 42.3207 44.2442 42.3207 44.2442C42.3207 44.2442 43.8027 38.0227 39.4755 38.0227C36.7756 38.0227 33.0192 40.9867 31.1733 43.6719C30.0141 44.3029 27.5049 45.6675 24.8637 47.1202C23.8512 47.6778 22.8094 48.2501 21.8263 48.793C21.7529 48.7196 21.6942 48.6463 21.6208 48.5729C16.3692 42.9676 6.67297 39.0058 7.08383 31.4783C7.23057 28.7343 8.18434 21.5297 25.7294 12.7843C40.1094 5.62362 51.6061 7.58986 53.5855 11.9626C56.4322 18.1988 47.4388 29.8055 32.5056 31.4783C26.8138 32.1092 23.8219 29.9082 23.0735 29.0865C22.2958 28.2208 22.1784 28.1768 21.885 28.3382C21.4007 28.6023 21.7089 29.3653 21.885 29.8202C22.3252 30.9794 24.1594 33.0337 27.2833 34.0608C30.0273 34.9559 36.7008 35.4548 44.7697 32.3293C53.835 28.8371 60.8915 19.1085 58.8225 10.9648C56.7154 2.68892 42.9928 -0.0256703 30.017 4.5818C22.2856 7.32574 13.9246 11.6397 7.90995 17.2597C0.765433 23.9508 -0.377631 29.7762 0.0919201 32.212C1.76323 40.8546 13.6752 46.4893 18.4426 50.6565C18.2078 50.7886 17.9877 50.906 17.7823 51.0234C15.392 52.2119 6.31054 56.9661 4.03762 61.9844C1.46976 67.6778 4.46315 71.757 6.42793 72.3146C12.56 74.0167 18.8388 70.9499 22.2122 65.9169C25.5856 60.8839 25.1762 54.3102 23.6208 51.3168C23.6062 51.2728 23.5768 51.2435 23.5621 51.1994C24.1784 50.8326 24.8094 50.4658 25.4403 50.0989C26.6568 49.3799 27.8453 48.7196 28.8871 48.1474C28.3002 49.7321 27.8747 51.6396 27.6546 54.3983C27.3905 57.6264 28.7257 61.8084 30.4572 63.4518C31.2202 64.1708 32.1432 64.1855 32.7155 64.1855C34.7404 64.1855 35.6502 62.5127 36.6612 60.5171C37.9084 58.0813 39.0089 55.2493 39.0089 55.2493C39.0089 55.2493 37.6296 62.9089 41.4007 62.9089C42.7785 62.9089 44.1578 61.1334 44.7756 60.2236V60.2383C44.7756 60.2383 44.8049 60.1796 44.8783 60.0622C45.025 59.8421 45.0984 59.7101 45.0984 59.7101V59.666C45.656 58.7123 46.8739 56.5259 48.7066 52.9162C51.0837 48.2501 53.3566 42.4247 53.3566 42.4247C53.5763 43.7053 53.8802 44.9699 54.2664 46.2105C54.6772 47.6044 55.543 49.1305 56.2326 50.6125C55.675 51.3755 55.3376 51.8157 55.3376 51.8157C55.3386 51.827 55.3439 51.8375 55.3522 51.8451C54.912 52.432 54.4131 53.063 53.8996 53.6793C52.0228 55.9096 49.791 58.4628 49.4975 59.1965C49.1453 60.0622 49.2334 60.7079 49.9084 61.2067C50.4073 61.5883 51.2877 61.647 52.2106 61.5736C53.8981 61.4562 55.0866 61.0453 55.6589 60.7812C56.7139 60.4029 57.711 59.8794 58.6215 59.2258C60.4557 57.8759 61.5709 55.939 61.4681 53.3858C61.4094 51.9771 60.9546 50.5685 60.397 49.2479C60.5584 49.0131 60.7345 48.7636 60.8959 48.5142C63.7998 44.2736 66.0448 39.6191 66.0448 39.6191C66.2644 40.8997 66.5683 42.1644 66.9545 43.4049C67.3067 44.5934 67.9949 45.8994 68.6259 47.176C65.8981 49.3917 64.2106 51.9595 63.6237 53.647C62.5378 56.7724 63.3889 58.1811 64.9883 58.5039C65.7073 58.6506 66.7344 58.3131 67.4975 57.9903C68.6307 57.6129 69.6991 57.0635 70.6655 56.3616C72.4996 55.0116 74.2737 53.1187 74.1563 50.5509C74.1123 49.3917 73.7895 48.2325 73.3639 47.1173C75.6677 46.1488 78.6596 45.6206 82.4747 46.0608C90.6449 47.0146 92.2443 52.1209 91.9361 54.2486C91.628 56.3762 89.9112 57.5648 89.3389 57.917C88.7667 58.2691 88.5906 58.4012 88.6346 58.6653C88.708 59.0468 88.9721 59.0321 89.4563 58.9441C90.1313 58.8267 93.7395 57.2126 93.9009 53.2655C94.1357 48.2765 89.3389 42.7886 80.8415 42.8326L80.8459 42.8356ZM17.8703 64.0681C15.1719 67.0174 11.3861 68.1326 9.75881 67.1935C8.01266 66.1781 8.70232 61.8377 12.0317 58.6947C14.0567 56.7871 16.6671 55.0263 18.3985 53.9404C18.7947 53.7057 19.367 53.3535 20.0713 52.928C20.1887 52.8546 20.2474 52.8253 20.2474 52.8253C20.3795 52.7372 20.5262 52.6639 20.6729 52.5758C21.8894 57.0365 20.717 60.969 17.8703 64.0651V64.0681ZM37.5856 50.6565C36.6465 52.9603 34.667 58.8296 33.4638 58.5215C32.4367 58.2574 31.8057 53.782 33.2584 49.3799C33.9921 47.1642 35.5474 44.523 36.4719 43.4959C37.9524 41.8378 39.5812 41.3095 39.9627 41.9698C40.4763 42.8356 38.1725 49.2185 37.5856 50.6565ZM53.8731 58.4335C53.477 58.6389 53.1101 58.771 52.934 58.6682C52.802 58.5949 53.0955 58.3161 53.0955 58.3161C53.0955 58.3161 55.1351 56.1297 55.9421 55.1319C56.4117 54.545 56.9546 53.8553 57.54 53.0923C57.54 53.1657 57.5547 53.2391 57.5547 53.3271C57.5356 55.9536 55.0133 57.7291 53.8687 58.4335H53.8731ZM66.4307 55.5721C66.1372 55.3667 66.1813 54.6771 67.1644 52.5347C67.5459 51.6983 68.4248 50.2897 69.9523 48.9397C70.1253 49.4507 70.2193 49.9851 70.2311 50.5245C70.2165 53.826 67.854 55.0586 66.4322 55.5721H66.4307Z" fill="#606060"/>
</g>
<defs>
<clipPath id="clip0_708_730">
<rect width="93.9103" height="75.1282" fill="white"/>
</clipPath>
</defs>
</svg>
