<svg width="87" height="69" viewBox="0 0 87 69" fill="none" xmlns="http://www.w3.org/2000/svg">
<path d="M50.2356 26.064C50.2356 22.6637 47.8354 20.7866 43.6196 20.7866H35.865V31.7415H42.4041C47.4507 31.7261 50.2356 29.6951 50.2356 26.064ZM78.4691 24.0946C77.0074 19.3403 76.792 13.509 76.9612 9.00086C77.1305 4.3081 73.4686 0 68.545 0H17.9556C13.0166 0 9.37013 4.32349 9.53938 9.00086C9.69324 13.509 9.49322 19.3403 8.03154 24.0946C6.55448 28.8643 4.07731 31.88 0 32.2646V36.6497C4.06193 37.0343 6.55448 40.05 8.03154 44.8197C9.49322 49.574 9.70862 55.4053 9.53938 59.9134C9.37013 64.6062 13.032 68.9143 17.9556 68.9143H68.5297C73.4686 68.9143 77.1151 64.5908 76.9458 59.9134C76.792 55.4053 76.992 49.574 78.4537 44.8197C79.9308 40.05 82.4079 37.0343 86.4698 36.6497V32.2646C82.4233 31.88 79.9307 28.8643 78.4691 24.0946ZM45.112 52.7897H30.049V16.1246H45.0351C51.6973 16.1246 56.0669 19.725 56.0669 25.264C56.0669 29.1566 53.1282 32.6339 49.374 33.234V33.434C54.4822 33.9879 57.9132 37.5267 57.9132 42.4041C57.9132 48.8816 53.0974 52.7897 45.112 52.7897ZM43.5734 36.065H35.865V48.1277H43.9119C49.174 48.1277 51.9588 46.0198 51.9588 42.0502C51.9588 38.096 49.097 36.065 43.5734 36.065Z" fill="#606060"/>
</svg>
