<svg width="73" height="73" viewBox="0 0 73 73" fill="none" xmlns="http://www.w3.org/2000/svg">
<path d="M71.4199 33.1543L39.6462 1.37245C38.7666 0.493641 37.5741 0 36.3307 0C35.0873 0 33.8948 0.493641 33.0152 1.37245L26.4086 7.97416L34.7798 16.3453C39.1766 14.8602 43.3394 19.0702 41.83 23.4426L49.8989 31.5116C55.4607 29.5943 59.8397 36.5486 55.6622 40.7228C51.358 45.027 44.2542 40.2564 46.5631 34.6556L39.032 27.1343V46.9329C43.1428 48.9705 42.6489 53.7329 40.5073 55.8695C39.461 56.9152 38.0423 57.5026 36.563 57.5026C35.0838 57.5026 33.6651 56.9152 32.6187 55.8695C29.7639 53.0098 30.8201 48.2474 34.4467 46.7704V26.7849C31.067 25.4022 30.4496 21.7902 31.418 19.4731L23.1654 11.2108L1.37312 33.0064C0.493915 33.8858 0 35.0784 0 36.3219C0 37.5654 0.493915 38.758 1.37312 39.6374L33.1566 71.4192C34.0359 72.2979 35.2281 72.7915 36.4712 72.7915C37.7143 72.7915 38.9066 72.2979 39.7859 71.4192L71.4199 39.7852C72.2991 38.9059 72.793 37.7133 72.793 36.4698C72.793 35.2262 72.2991 34.0337 71.4199 33.1543Z" fill="#5F5F5F"/>
</svg>
