<svg width="29" height="39" viewBox="0 0 29 39" fill="none" xmlns="http://www.w3.org/2000/svg">
<g clip-path="url(#clip0_330_118)">
<path d="M19.3314 -0.000488281V9.66618H28.998L19.3314 -0.000488281ZM16.9147 9.66618V-0.000488281H3.62305C1.62099 -0.000488281 -0.00195312 1.62245 -0.00195312 3.62451V35.0412C-0.00195312 37.0425 1.62099 38.6662 3.62305 38.6662H25.373C27.3751 38.6662 28.998 37.0432 28.998 35.0412V12.0828H19.3993C17.9947 12.0828 16.9147 11.0029 16.9147 9.66618ZM20.5397 31.4162H8.45638C7.7918 31.4162 7.24805 30.8724 7.24805 30.2078C7.24805 29.5433 7.7918 28.9995 8.45638 28.9995H20.5397C21.207 28.9995 21.748 29.5404 21.748 30.2078C21.748 30.8724 21.2043 31.4162 20.5397 31.4162ZM20.5397 26.5828H8.45638C7.7918 26.5828 7.24805 26.0391 7.24805 25.3745C7.24805 24.7099 7.7918 24.1662 8.45638 24.1662H20.5397C21.207 24.1662 21.748 24.7071 21.748 25.3745C21.748 26.0391 21.2043 26.5828 20.5397 26.5828ZM21.748 20.5412C21.748 21.2058 21.2043 21.7495 20.5397 21.7495H8.45638C7.7918 21.7495 7.24805 21.2058 7.24805 20.5412C7.24805 19.8766 7.7918 19.3328 8.45638 19.3328H20.5397C21.2043 19.3328 21.748 19.8766 21.748 20.5412Z" fill="black"/>
</g>
<defs>
<clipPath id="clip0_330_118">
<rect width="29" height="38.6667" fill="white"/>
</clipPath>
</defs>
</svg>
