<svg width="50" height="53" viewBox="0 0 50 53" fill="none" xmlns="http://www.w3.org/2000/svg">
<g clip-path="url(#clip0_759_628)" filter="url(#filter0_d_759_628)">
<path d="M37.0645 2.98698L4.46321 3.15656C2.00885 3.16933 0.0279361 5.17096 0.0407028 7.62531L0.210284 40.2266C0.223051 42.6809 2.22468 44.6618 4.67904 44.6491L37.2803 44.4795C39.7347 44.4667 41.7156 42.4651 41.7028 40.0107L41.5332 7.40948C41.5205 4.95513 39.5188 2.97421 37.0645 2.98698ZM25.8852 38.5833C25.1079 38.7263 24.8183 38.2462 24.8162 37.8479C24.8136 37.3478 24.8189 34.7915 24.8081 32.7261C24.8006 31.2813 24.3142 30.3669 23.7468 29.8882C27.1716 29.4906 30.7812 28.9995 30.7504 23.0813C30.7417 21.3956 30.1353 20.5559 29.1479 19.4774C29.3033 19.0784 29.8227 17.4363 28.9688 15.3105C27.6793 14.9189 24.7448 16.9903 24.7448 16.9903C23.5205 16.654 22.1951 16.4849 20.8892 16.4917C19.5833 16.4985 18.2598 16.6814 17.039 17.0304C17.039 17.0304 14.0831 14.9896 12.7978 15.3946C11.966 17.5199 12.4932 19.1565 12.662 19.5632C11.6859 20.6519 11.2272 21.4971 11.236 23.1828C11.2666 29.0732 14.7239 29.5554 18.1527 29.9173C17.7102 30.3179 17.3155 31.0053 17.1817 31.9878C16.3039 32.3906 14.0568 33.0877 12.7016 30.7237C11.8511 29.2647 10.3316 29.1522 10.3316 29.1522C8.83109 29.1415 10.2346 30.0974 10.2346 30.0974C11.2373 30.5553 11.9504 32.3299 11.9504 32.3299C12.8631 35.0759 17.1558 34.1274 17.1558 34.1274C17.1625 35.4148 17.1919 37.5078 17.1938 37.8876C17.1959 38.2858 16.9206 38.7689 16.1326 38.6341C10.0092 36.619 5.70004 30.8249 5.66468 24.0268C5.62045 15.5245 12.0886 9.0353 20.5909 8.99107C29.0931 8.94685 36.0174 15.3664 36.0617 23.8687C36.1063 30.6667 31.9873 36.5139 25.8852 38.5833ZM16.77 32.9717C16.5942 33.0096 16.4271 32.9364 16.408 32.8161C16.3887 32.6773 16.5085 32.5562 16.6843 32.5183C16.8602 32.4988 17.0273 32.5721 17.0464 32.6924C17.0748 32.8126 16.955 32.9337 16.77 32.9717ZM15.8897 32.8929C15.8903 33.0133 15.7519 33.1159 15.5667 33.1169C15.363 33.1364 15.2236 33.0353 15.2229 32.8964C15.2222 32.776 15.3606 32.6734 15.5459 32.6724C15.7217 32.653 15.889 32.754 15.8897 32.8929ZM14.6203 32.7976C14.5839 32.9182 14.399 32.9747 14.2412 32.92C14.065 32.8839 13.9439 32.7456 13.9803 32.625C14.0168 32.5044 14.2017 32.4478 14.3594 32.4841C14.5449 32.5387 14.666 32.677 14.6203 32.7976ZM13.4785 32.3034C13.3957 32.4057 13.2196 32.3881 13.08 32.2499C12.9404 32.1302 12.9025 31.9544 12.9947 31.8706C13.0775 31.7683 13.2535 31.7859 13.3932 31.9241C13.5142 32.0439 13.5615 32.2289 13.4785 32.3034ZM12.6313 31.465C12.5483 31.521 12.3905 31.4662 12.2879 31.3278C12.1853 31.1894 12.1845 31.032 12.286 30.9666C12.3875 30.8827 12.5453 30.9468 12.6294 31.0852C12.732 31.2236 12.7328 31.3904 12.6313 31.465V31.465ZM12.0246 30.5697C11.9417 30.6535 11.8026 30.6079 11.7002 30.5158C11.5977 30.396 11.5784 30.2571 11.6615 30.1919C11.7444 30.1081 11.8835 30.1537 11.9859 30.2458C12.0884 30.3656 12.1077 30.5045 12.0246 30.5697ZM11.4005 29.8876C11.3639 29.9711 11.2436 29.9903 11.1414 29.926C11.0207 29.871 10.9646 29.7694 11.0012 29.6859C11.038 29.6301 11.1397 29.6018 11.2604 29.6475C11.3811 29.7117 11.4372 29.8133 11.4005 29.8876Z" fill="black"/>
</g>
<defs>
<filter id="filter0_d_759_628" x="0" y="0" width="49.7383" height="55.6357" filterUnits="userSpaceOnUse" color-interpolation-filters="sRGB">
<feFlood flood-opacity="0" result="BackgroundImageFix"/>
<feColorMatrix in="SourceAlpha" type="matrix" values="0 0 0 0 0 0 0 0 0 0 0 0 0 0 0 0 0 0 127 0" result="hardAlpha"/>
<feOffset dx="4" dy="4"/>
<feGaussianBlur stdDeviation="2"/>
<feColorMatrix type="matrix" values="0 0 0 0 0.607843 0 0 0 0 0.870588 0 0 0 0 0.564706 0 0 0 1 0"/>
<feBlend mode="normal" in2="BackgroundImageFix" result="effect1_dropShadow_759_628"/>
<feBlend mode="normal" in="SourceGraphic" in2="effect1_dropShadow_759_628" result="shape"/>
</filter>
<clipPath id="clip0_759_628">
<rect width="41.4931" height="47.4207" fill="white" transform="translate(0 0.21582) rotate(-0.298031)"/>
</clipPath>
</defs>
</svg>
