<svg width="37" height="43" viewBox="0 0 37 43" fill="none" xmlns="http://www.w3.org/2000/svg">
<g clip-path="url(#clip0_330_147)">
<path d="M33.0357 2.64258H3.96429C1.77567 2.64258 0 4.41825 0 6.60686V35.6783C0 37.8669 1.77567 39.6426 3.96429 39.6426H33.0357C35.2243 39.6426 37 37.8669 37 35.6783V6.60686C37 4.41825 35.2243 2.64258 33.0357 2.64258ZM22.902 34.3321C22.2083 34.456 21.9522 34.0265 21.9522 33.6714C21.9522 33.2254 21.9688 30.9459 21.9688 29.1042C21.9688 27.8158 21.5393 26.9982 21.0355 26.5687C24.0913 26.2301 27.3123 25.8089 27.3123 20.5314C27.3123 19.0283 26.7754 18.2767 25.9 17.3104C26.0404 16.9553 26.5112 15.4935 25.7596 13.5939C24.6116 13.2388 21.9853 15.0723 21.9853 15.0723C20.8951 14.7667 19.7141 14.6098 18.5496 14.6098C17.385 14.6098 16.204 14.7667 15.1138 15.0723C15.1138 15.0723 12.4875 13.2388 11.3395 13.5939C10.5879 15.4852 11.0504 16.947 11.1991 17.3104C10.3237 18.2767 9.91071 19.0283 9.91071 20.5314C9.91071 25.7841 12.9913 26.2301 16.0471 26.5687C15.6507 26.9238 15.2955 27.535 15.1717 28.4104C14.3871 28.7656 12.3801 29.3767 11.1826 27.2624C10.431 25.9575 9.07656 25.8502 9.07656 25.8502C7.73862 25.8336 8.98571 26.6926 8.98571 26.6926C9.87768 27.1055 10.5054 28.6912 10.5054 28.6912C11.3065 31.1441 15.1386 30.3182 15.1386 30.3182C15.1386 31.4662 15.1551 33.3328 15.1551 33.6714C15.1551 34.0265 14.9074 34.456 14.2054 34.3321C8.75446 32.5069 4.93884 27.3203 4.93884 21.2582C4.93884 13.6765 10.7366 7.92003 18.3183 7.92003C25.9 7.92003 32.0446 13.6765 32.0446 21.2582C32.0529 27.3203 28.3529 32.5151 22.902 34.3321ZM14.8 29.2859C14.6431 29.3189 14.4944 29.2528 14.4779 29.1455C14.4614 29.0216 14.5687 28.9142 14.7257 28.8812C14.8826 28.8647 15.0312 28.9307 15.0478 29.0381C15.0725 29.1455 14.9652 29.2528 14.8 29.2859ZM14.0154 29.2116C14.0154 29.3189 13.8915 29.4098 13.7263 29.4098C13.5446 29.4263 13.4208 29.3354 13.4208 29.2116C13.4208 29.1042 13.5446 29.0133 13.7098 29.0133C13.8667 28.9968 14.0154 29.0877 14.0154 29.2116ZM12.8839 29.1207C12.8509 29.2281 12.6857 29.2776 12.5453 29.2281C12.3884 29.195 12.281 29.0711 12.3141 28.9638C12.3471 28.8564 12.5123 28.8069 12.6527 28.8399C12.8179 28.8895 12.9252 29.0133 12.8839 29.1207ZM11.8681 28.6747C11.7937 28.7656 11.6368 28.7491 11.5129 28.6252C11.3891 28.5178 11.356 28.3609 11.4386 28.2866C11.5129 28.1957 11.6699 28.2122 11.7937 28.3361C11.9011 28.4435 11.9424 28.6087 11.8681 28.6747ZM11.1165 27.9232C11.0422 27.9727 10.9018 27.9232 10.8109 27.7993C10.7201 27.6754 10.7201 27.535 10.8109 27.4772C10.9018 27.4028 11.0422 27.4607 11.1165 27.5845C11.2074 27.7084 11.2074 27.8571 11.1165 27.9232ZM10.5797 27.122C10.5054 27.1964 10.3815 27.1551 10.2906 27.0725C10.1998 26.9651 10.1833 26.8412 10.2576 26.7834C10.3319 26.7091 10.4558 26.7504 10.5467 26.833C10.6375 26.9403 10.654 27.0642 10.5797 27.122ZM10.0263 26.5109C9.9933 26.5852 9.88594 26.6017 9.79509 26.5439C9.68772 26.4944 9.63817 26.4035 9.6712 26.3292C9.70424 26.2796 9.79509 26.2549 9.90246 26.2961C10.0098 26.354 10.0594 26.4448 10.0263 26.5109Z" fill="black"/>
</g>
<defs>
<clipPath id="clip0_330_147">
<rect width="37" height="42.2857" fill="white"/>
</clipPath>
</defs>
</svg>
