<svg width="50" height="53" viewBox="0 0 50 53" fill="none" xmlns="http://www.w3.org/2000/svg">
<g clip-path="url(#clip0_759_632)" filter="url(#filter0_d_759_632)">
<path d="M20.6831 18.7311C19.7136 18.7365 18.7675 19.0292 17.9645 19.5723C17.1614 20.1153 16.5373 20.8843 16.1713 21.782C15.8052 22.6797 15.7135 23.6657 15.9078 24.6155C16.1021 25.5653 16.5736 26.4362 17.2628 27.118C17.952 27.7998 18.8279 28.2619 19.7797 28.446C20.7316 28.63 21.7166 28.5277 22.6103 28.152C23.504 27.7763 24.2662 27.144 24.8006 26.3351C25.3349 25.5262 25.6174 24.577 25.6124 23.6076C25.6047 22.3075 25.0812 21.0636 24.1569 20.1492C23.2326 19.2349 21.9832 18.7248 20.6831 18.7311V18.7311ZM32.1245 14.9035C31.8716 14.2724 31.4918 13.6999 31.0085 13.2217C30.5253 12.7434 29.9489 12.3696 29.3152 12.1233C27.3813 11.3715 22.7871 11.5663 20.6459 11.5775C18.5046 11.5886 13.9132 11.4351 11.9817 12.2135C11.3506 12.4663 10.7782 12.8462 10.2999 13.3294C9.82166 13.8127 9.44781 14.389 9.20155 15.0227C8.45065 16.9566 8.64459 21.5554 8.65572 23.6948C8.66685 25.8343 8.52073 30.4293 9.29542 32.3617C9.54826 32.9928 9.92809 33.5653 10.4113 34.0435C10.8946 34.5218 11.4709 34.8956 12.1047 35.1419C14.0386 35.8937 18.6327 35.6989 20.7749 35.6877C22.9172 35.6766 27.5067 35.8301 29.4381 35.0517C30.0693 34.7989 30.6417 34.4191 31.12 33.9358C31.5982 33.4526 31.9721 32.8762 32.2183 32.2425C32.9757 30.3086 32.7753 25.7098 32.7641 23.5704C32.753 21.4309 32.9056 16.8368 32.1281 14.9044L32.1245 14.9035ZM20.7478 31.169C19.2573 31.1767 17.798 30.7423 16.5544 29.9207C15.3109 29.0991 14.3388 27.9272 13.7613 26.5531C13.1838 25.1791 13.0266 23.6647 13.3098 22.2013C13.593 20.738 14.3037 19.3915 15.3522 18.3321C16.4006 17.2727 17.7396 16.548 19.1999 16.2496C20.6602 15.9512 22.1762 16.0926 23.5562 16.6558C24.9362 17.219 26.1181 18.1788 26.9526 19.4138C27.7871 20.6487 28.2367 22.1034 28.2445 23.5939C28.2508 24.5838 28.0618 25.5653 27.6883 26.4821C27.3148 27.3989 26.764 28.2331 26.0677 28.9367C25.3713 29.6404 24.543 30.1997 23.6301 30.5828C22.7172 30.9658 21.7377 31.165 20.7478 31.169V31.169ZM28.5234 17.4992C28.1755 17.5012 27.8347 17.4 27.5444 17.2083C27.254 17.0166 27.0269 16.7432 26.892 16.4225C26.757 16.1017 26.7202 15.7482 26.7862 15.4066C26.8522 15.065 27.018 14.7506 27.2627 14.5032C27.5074 14.2559 27.82 14.0866 28.1608 14.0169C28.5017 13.9472 28.8556 13.9801 29.1778 14.1115C29.4999 14.243 29.7759 14.467 29.9707 14.7553C30.1655 15.0436 30.2705 15.3831 30.2723 15.7311C30.2745 15.9621 30.231 16.1913 30.1444 16.4055C30.0578 16.6197 29.9297 16.8147 29.7676 16.9794C29.6055 17.144 29.4124 17.2749 29.1995 17.3648C28.9866 17.4546 28.7581 17.5015 28.5271 17.5029L28.5234 17.4992ZM36.7761 2.96308L4.42688 3.13135C3.25694 3.13744 2.13734 3.60803 1.31437 4.4396C0.491405 5.27118 0.0324853 6.39561 0.0385709 7.56555L0.206841 39.9147C0.212926 41.0847 0.683519 42.2043 1.51509 43.0273C2.34667 43.8502 3.4711 44.3091 4.64104 44.3031L36.9902 44.1348C38.1602 44.1287 39.2798 43.6581 40.1027 42.8265C40.9257 41.995 41.3846 40.8705 41.3785 39.7006L41.2103 7.35139C41.2042 6.18145 40.7336 5.06185 39.902 4.23888C39.0705 3.41591 37.946 2.957 36.7761 2.96308V2.96308ZM35.3414 29.6226C35.2351 31.9786 34.7083 34.0685 32.9977 35.7923C31.2872 37.5161 29.2048 38.0756 26.8527 38.2C24.4263 38.3496 17.1496 38.3874 14.7218 38.2631C12.3657 38.1568 10.2832 37.6291 8.55205 35.9195C6.82088 34.2099 6.26872 32.1247 6.14437 29.7745C5.99481 27.3472 5.95695 20.0695 6.08127 17.6435C6.18757 15.2875 6.7079 13.1976 8.42489 11.4738C10.1419 9.74993 12.2243 9.19687 14.5699 9.07254C16.9963 8.92299 24.2731 8.88514 26.7009 9.00944C29.0569 9.11574 31.1459 9.64343 32.8706 11.3531C34.5954 13.0627 35.1539 15.1478 35.2783 17.5027C35.4278 19.9208 35.4657 27.192 35.3414 29.6226Z" fill="black"/>
</g>
<defs>
<filter id="filter0_d_759_632" x="0" y="0" width="49.416" height="55.2676" filterUnits="userSpaceOnUse" color-interpolation-filters="sRGB">
<feFlood flood-opacity="0" result="BackgroundImageFix"/>
<feColorMatrix in="SourceAlpha" type="matrix" values="0 0 0 0 0 0 0 0 0 0 0 0 0 0 0 0 0 0 127 0" result="hardAlpha"/>
<feOffset dx="4" dy="4"/>
<feGaussianBlur stdDeviation="2"/>
<feColorMatrix type="matrix" values="0 0 0 0 0.607843 0 0 0 0 0.870588 0 0 0 0 0.564706 0 0 0 1 0"/>
<feBlend mode="normal" in2="BackgroundImageFix" result="effect1_dropShadow_759_632"/>
<feBlend mode="normal" in="SourceGraphic" in2="effect1_dropShadow_759_632" result="shape"/>
</filter>
<clipPath id="clip0_759_632">
<rect width="41.1723" height="47.054" fill="white" transform="translate(0 0.213867) rotate(-0.298031)"/>
</clipPath>
</defs>
</svg>
