<svg width="50" height="53" viewBox="0 0 50 53" fill="none" xmlns="http://www.w3.org/2000/svg">
<g clip-path="url(#clip0_759_630)" filter="url(#filter0_d_759_630)">
<path d="M38.511 2.97652L2.96755 3.1614C1.3389 3.16987 0.0226045 4.51854 0.0311725 6.1657L0.215721 41.6443C0.224289 43.2915 1.55455 44.6264 3.18319 44.6179L38.7266 44.433C40.3553 44.4246 41.6808 43.0759 41.6722 41.4287L41.4877 5.95006C41.4791 4.3029 40.1396 2.96805 38.511 2.97652ZM12.73 38.6457L6.58551 38.6777L6.48259 18.8933L12.6363 18.8613L12.7392 38.6457L12.73 38.6457ZM9.54076 16.1753C7.56973 16.1855 5.96977 14.5929 5.95956 12.6311C5.94936 10.6693 7.53266 9.06018 9.5037 9.04992C11.4655 9.03972 13.0747 10.6323 13.0849 12.5941C13.0952 14.5651 11.5118 16.165 9.54076 16.1753V16.1753ZM35.7624 38.5259L29.6179 38.5579L29.5679 28.9341C29.5559 26.6391 29.4943 23.6875 26.3481 23.7038C23.1463 23.7205 22.6688 26.2215 22.6823 28.8033L22.7332 38.5937L16.5887 38.6257L16.4858 18.8413L22.3804 18.8106L22.3945 21.5127L22.4778 21.5123C23.2933 19.9534 25.2928 18.305 28.2817 18.2895C34.5002 18.2571 35.6782 22.3505 35.706 27.6806L35.7624 38.5259V38.5259Z" fill="black"/>
</g>
<defs>
<filter id="filter0_d_759_630" x="0" y="0" width="49.7031" height="55.5947" filterUnits="userSpaceOnUse" color-interpolation-filters="sRGB">
<feFlood flood-opacity="0" result="BackgroundImageFix"/>
<feColorMatrix in="SourceAlpha" type="matrix" values="0 0 0 0 0 0 0 0 0 0 0 0 0 0 0 0 0 0 127 0" result="hardAlpha"/>
<feOffset dx="4" dy="4"/>
<feGaussianBlur stdDeviation="2"/>
<feColorMatrix type="matrix" values="0 0 0 0 0.607843 0 0 0 0 0.870588 0 0 0 0 0.564706 0 0 0 1 0"/>
<feBlend mode="normal" in2="BackgroundImageFix" result="effect1_dropShadow_759_630"/>
<feBlend mode="normal" in="SourceGraphic" in2="effect1_dropShadow_759_630" result="shape"/>
</filter>
<clipPath id="clip0_759_630">
<rect width="41.4571" height="47.3795" fill="white" transform="translate(0 0.21582) rotate(-0.298031)"/>
</clipPath>
</defs>
</svg>
