<svg width="33" height="38" viewBox="0 0 33 38" fill="none" xmlns="http://www.w3.org/2000/svg">
<path d="M28.0574 7.15273C24.971 4.05898 20.8607 2.35742 16.4926 2.35742C7.47656 2.35742 0.139955 9.69403 0.139955 18.7101C0.139955 21.5902 0.891295 24.4041 2.32031 26.8864L0 35.3574L8.66987 33.0813C11.0565 34.3851 13.7451 35.0701 16.4853 35.0701H16.4926C25.5013 35.0701 33 27.7335 33 18.7175C33 14.3494 31.1438 10.2465 28.0574 7.15273V7.15273ZM16.4926 32.3152C14.0471 32.3152 11.6531 31.6597 9.56853 30.4222L9.075 30.1275L3.93348 31.4755L5.30357 26.4592L4.97946 25.9436C3.61674 23.778 2.90223 21.2809 2.90223 18.7101C2.90223 11.2188 9.00134 5.1197 16.5 5.1197C20.1315 5.1197 23.542 6.53398 26.1054 9.10474C28.6688 11.6755 30.2451 15.086 30.2377 18.7175C30.2377 26.2161 23.9839 32.3152 16.4926 32.3152V32.3152ZM23.9471 22.1353C23.542 21.9291 21.531 20.942 21.1554 20.8094C20.7797 20.6695 20.5071 20.6032 20.2346 21.0157C19.9621 21.4282 19.1813 22.3416 18.9382 22.6215C18.7025 22.894 18.4594 22.9309 18.0542 22.7246C15.6529 21.5239 14.0766 20.5811 12.4929 17.863C12.073 17.1411 12.9127 17.1927 13.6935 15.6311C13.8261 15.3585 13.7598 15.1228 13.6567 14.9166C13.5536 14.7103 12.7359 12.6994 12.3971 11.8818C12.0656 11.0862 11.7268 11.1967 11.4763 11.182C11.2406 11.1672 10.9681 11.1672 10.6955 11.1672C10.423 11.1672 9.98103 11.2704 9.60536 11.6755C9.22969 12.088 8.17634 13.0751 8.17634 15.086C8.17634 17.0969 9.64219 19.0416 9.84107 19.3141C10.0473 19.5867 12.7212 23.7117 16.8241 25.4869C19.417 26.6065 20.4335 26.7023 21.7299 26.5108C22.5181 26.3929 24.146 25.5237 24.4848 24.5661C24.8237 23.6085 24.8237 22.7909 24.7205 22.6215C24.6248 22.4373 24.3522 22.3342 23.9471 22.1353Z" fill="black"/>
</svg>
